<?xml version="1.0" encoding="utf-8"?>
<!-- Generator: Adobe Illustrator 28.4.1, SVG Export Plug-In . SVG Version: 6.00 Build 0)  -->
<svg version="1.1" id="Layer_1" xmlns="http://www.w3.org/2000/svg" xmlns:xlink="http://www.w3.org/1999/xlink" x="0px" y="0px"
	 viewBox="0 0 500 500" style="enable-background:new 0 0 500 500;" xml:space="preserve">
<style type="text/css">
	.st0{fill:url(#SVGID_1_);}
	.st1{fill:#FFFFFF;}
</style>
<g>
	<linearGradient id="SVGID_1_" gradientUnits="userSpaceOnUse" x1="250" y1="421.9627" x2="250" y2="18.9327">
		<stop  offset="0" style="stop-color:#57B8FF"/>
		<stop  offset="1" style="stop-color:#0C7CFF"/>
	</linearGradient>
	<path class="st0" d="M369.6,465.1H130.4c-52.7,0-95.4-42.7-95.4-95.4V130.4c0-52.7,42.7-95.4,95.4-95.4h239.3
		c52.7,0,95.4,42.7,95.4,95.4v239.3C465.1,422.3,422.3,465.1,369.6,465.1z"/>
	<path class="st1" d="M165.3,136c34.3,25.8,71.2,78,84.7,106c13.5-28,50.4-80.2,84.7-106c24.8-18.6,64.9-33,64.9,12.8
		c0,9.1-5.2,76.8-8.3,87.7c-10.7,38.2-49.6,47.9-84.2,42c60.5,10.3,75.9,44.4,42.7,78.5c-63.1,64.8-90.7-16.3-97.8-37
		c-1.3-3.8-1.9-5.6-1.9-4.1c0-1.5-0.6,0.3-1.9,4.1c-7.1,20.8-34.7,101.8-97.8,37c-33.2-34.1-17.9-68.2,42.7-78.5
		c-34.6,5.9-73.5-3.8-84.2-42c-3.1-11-8.3-78.6-8.3-87.7C100.4,103,140.5,117.4,165.3,136L165.3,136z"/>
</g>
</svg>
