<svg xmlns="http://www.w3.org/2000/svg" enable-background="new 0 0 64 64" viewBox="0 0 64 64"><path fill="none" d="M47.8,11.6h6.8c1.9,0,3.4,1.5,3.4,3.4v31H5.9V15c0-1.9,1.5-3.4,3.4-3.4h6.8"/><path fill="#E3ECFF" d="M47.8,11.6h6.8c1.9,0,3.4,1.5,3.4,3.4v31H5.9V15c0-1.9,1.5-3.4,3.4-3.4h6.8"/><path fill="none" stroke="#2A3C65" stroke-linecap="round" stroke-linejoin="round" stroke-miterlimit="10" stroke-width="1.5" d="
		M58.1,43.1v-28c0-1.9-1.5-3.4-3.4-3.4h-6.8H16.2H9.4c-1.9,0-3.4,1.5-3.4,3.4v28"/><circle cx="32" cy="28.9" r="10.7" fill="#02BEFF"/><path fill="#00ADDB" d="M42.7,28.9c0,5.9-4.8,10.7-10.7,10.7c-4.3,0-7.9-2.5-9.7-6.1c1.4,0.7,3,1,4.6,1c5.9,0,10.7-4.8,10.7-10.7
		c0-1.6-0.4-3.2-1-4.6C40.2,20.9,42.7,24.6,42.7,28.9z"/><circle cx="32" cy="28.9" r="10.7" fill="none" stroke="#2A3C65" stroke-linecap="round" stroke-linejoin="round" stroke-miterlimit="10"/><path fill="none" stroke="#2A3C65" stroke-linecap="round" stroke-linejoin="round" stroke-miterlimit="10" d="M34.9 20.7c.5 1.1 1 2.4 1.2 4l0 0c.2 1.3.4 2.7.4 4.2s-.1 2.9-.4 4.2l0 0c-.3 1.6-.7 2.9-1.2 4M29.1 37c-.5-1.1-1-2.4-1.3-4-.2-1.3-.4-2.7-.4-4.2s.1-2.9.4-4.2c.3-1.6.7-2.9 1.3-4"/><path fill="none" stroke="#2A3C65" stroke-linecap="round" stroke-linejoin="round" stroke-miterlimit="10" d="M23.8 25.9c1.1-.5 2.4-1 4-1.3 1.3-.2 2.7-.4 4.2-.4s2.9.1 4.2.4l0 0c1.6.3 2.9.7 4 1.3M40.2 31.8c-1.1.5-2.4 1-4 1.3l0 0c-1.3.2-2.7.4-4.2.4s-2.9-.1-4.2-.4c-1.6-.3-2.9-.7-4-1.3"/><line x1="32" x2="32" y1="20.2" y2="37.6" fill="none" stroke="#2A3C65" stroke-linecap="round" stroke-linejoin="round" stroke-miterlimit="10"/><line x1="40.7" x2="23.3" y1="28.9" y2="28.9" fill="none" stroke="#2A3C65" stroke-linecap="round" stroke-linejoin="round" stroke-miterlimit="10"/><path fill="none" stroke="#2A3C65" stroke-linecap="round" stroke-linejoin="round" stroke-miterlimit="10" d="M45.6 26.7c1.2 1.2 1.2 3.1 0 4.2M47.3 25.1c2.1 2.1 2.1 5.5 0 7.5M48.9 23.5c3 3 3 7.8 0 10.8M18.4 31c-1.2-1.2-1.2-3.1 0-4.2M16.7 32.6c-2.1-2.1-2.1-5.5 0-7.5M15.1 34.2c-3-3-3-7.8 0-10.8"/><path fill="#C7D9F9" d="M1,46.1c0.7,3.6,3.9,6.3,7.7,6.3h46.5c3.8,0,7-2.7,7.7-6.3H1z"/><path fill="none" stroke="#2A3C65" stroke-linecap="round" stroke-linejoin="round" stroke-miterlimit="10" stroke-width="1.5" d="
		M1,46.1c0.7,3.6,3.9,6.3,7.7,6.3h46.5c3.8,0,7-2.7,7.7-6.3H1z"/><g><path fill="#C7D9F9" d="M26.8,48.6c0.3,0.7,1,1.2,1.8,1.2h6.7c0.8,0,1.5-0.5,1.8-1.2"/></g><g><path fill="none" stroke="#2A3C65" stroke-linecap="round" stroke-linejoin="round" stroke-miterlimit="10" d="M26.8,48
			c0.3,0.7,1,1.2,1.8,1.2h6.7c0.8,0,1.5-0.5,1.8-1.2"/></g></svg>