<svg xmlns="http://www.w3.org/2000/svg" viewBox="0 0 50 50"><path fill="#c7cde8" d="M27,44H25A19.03609,19.03609,0,0,1,8.53467,34.499h0a2.14291,2.14291,0,0,1,2.79415.62144A17.0499,17.0499,0,0,0,25,42h0a2,2,0,0,1,2,2Z"/><path fill="#123757" d="M45,18h-.20911A20.98614,20.98614,0,0,0,5.21252,18H5a3.00328,3.00328,0,0,0-3,3v8a3.00328,3.00328,0,0,0,3,3h.20953a20.98554,20.98554,0,0,0,39.57752,0H45a3.00328,3.00328,0,0,0,3-3V21A3.00328,3.00328,0,0,0,45,18ZM17.30145,18a25.70125,25.70125,0,0,1,1.63806-3.56409A34.43426,34.43426,0,0,0,24,14.96265V18ZM26,7.501a39.84492,39.84492,0,0,1,3.96033,5.09405A32.43178,32.43178,0,0,1,26,12.9563Zm1.49854-1.32428a18.94988,18.94988,0,0,1,9.87884,4.39764A36.1675,36.1675,0,0,1,32.059,12.19891,40.75391,40.75391,0,0,0,27.49854,6.17676ZM24,7.50128v5.455a32.44054,32.44054,0,0,1-3.96027-.36121A39.88629,39.88629,0,0,1,24,7.50128ZM17.94147,12.199a36.16882,36.16882,0,0,1-5.33289-1.63044,18.90639,18.90639,0,0,1,9.8938-4.3927A40.78255,40.78255,0,0,0,17.94147,12.199ZM26,14.96265a34.43873,34.43873,0,0,0,5.06036-.52668A25.69424,25.69424,0,0,1,32.69812,18H26ZM34.81262,18a26.78416,26.78416,0,0,0-1.72009-3.99017,38.87322,38.87322,0,0,0,5.85284-1.91095A18.93769,18.93769,0,0,1,42.65668,18Zm-23.7669-5.90448a38.87832,38.87832,0,0,0,5.86212,1.91437A26.8096,26.8096,0,0,0,15.18713,18H7.33575A18.94673,18.94673,0,0,1,11.04572,12.09552ZM7.34283,32H15.176a26.88759,26.88759,0,0,0,1.70881,3.98474c-.38361.09247-.76728.186-1.15039.29163a.99979.99979,0,1,0,.53124,1.92773c.552-.152,1.10468-.28485,1.65772-.40784.57477.93763,1.204,1.87311,1.90186,2.80335a.99961.99961,0,1,0,1.5996-1.19922c-.49908-.66565-.96069-1.333-1.39233-2.00079A32.2186,32.2186,0,0,1,24,37.03253V40a1,1,0,0,0,2,0V37.02722a32.50442,32.50442,0,0,1,3.96649.37683q-.64637.99968-1.39129,1.99634a.99961.99961,0,1,0,1.5996,1.19922c.69587-.92786,1.324-1.86084,1.89765-2.7959a36.28522,36.28522,0,0,1,5.324,1.62378A19.0257,19.0257,0,0,1,7.34283,32Zm25.36805,0a25.87086,25.87086,0,0,1-1.64362,3.56073A34.512,34.512,0,0,0,26,35.024V32ZM24,35.02893a34.26294,34.26294,0,0,0-5.06964.5246A25.87333,25.87333,0,0,1,17.2926,32H24Zm14.95563,2.87415a38.929,38.929,0,0,0-5.84424-1.91462A26.82158,26.82158,0,0,0,34.82477,32h7.83911A18.94593,18.94593,0,0,1,38.95563,37.90308ZM46,29a1.00067,1.00067,0,0,1-1,1H5a1.001,1.001,0,0,1-1-1V21a1.001,1.001,0,0,1,1-1H45a1.00067,1.00067,0,0,1,1,1Z"/><path fill="#40c9e4" d="M34 22H7a.99974.99974 0 0 0-1 1v4a.99974.99974 0 0 0 1 1H34zM43 22H36v6h7a.99943.99943 0 0 0 1-1V23A.99943.99943 0 0 0 43 22z"/></svg>