<?xml version="1.0" encoding="UTF-8"?><!DOCTYPE svg PUBLIC "-//W3C//DTD SVG 1.1//EN" "http://www.w3.org/Graphics/SVG/1.1/DTD/svg11.dtd"><svg xmlns="http://www.w3.org/2000/svg" xmlns:xlink="http://www.w3.org/1999/xlink" version="1.1" id="Layer_1" x="0px" y="0px" width="64px" height="64px" viewBox="0 0 64 64" xml:space="preserve"><path fill="#FFF" d="M63 47.2c0 3.4-2.7 5.8-6 5.8H7c-3.3 0-6-2.4-6-5.8V16.8C1 13.4 3.7 11 7 11h50c3.3 0 6 2.4 6 5.8v30.4z"/><path fill="#E9F3F4" d="M7 11h50c3.3 0 6 2.4 6 5.8v30.4c0 3.4-2.8 5.8-6.1 5.8"/><path fill="#D9ECED" d="M63 47.1c0 3.4-2.7 5.9-6 5.9H7c-3.3 0-6-2.6-6-6"/><path fill="#D9ECED" d="M7 11h50c3.3 0 6 2.4 6 5.8V28"/><path fill="#D32027" d="M63 28H36V11h-8v17H1v8h27v17h8V36h27z"/><path fill="#AA0015" d="M28 47h8v6h-8z"/><path fill="#AA0015" d="M36 11h-8v17h-.7l9.4 8H63v-8H36z"/><metadata><rdf:RDF xmlns:rdf="http://www.w3.org/1999/02/22-rdf-syntax-ns#" xmlns:rdfs="http://www.w3.org/2000/01/rdf-schema#" xmlns:dc="http://purl.org/dc/elements/1.1/"><rdf:Description about="https://iconscout.com/legal#licenses" dc:title="england" dc:description="england" dc:publisher="Iconscout" dc:date="2018-02-05" dc:format="image/svg+xml" dc:language="en"><dc:creator><rdf:Bag><rdf:li>Roundicons.com</rdf:li></rdf:Bag></dc:creator></rdf:Description></rdf:RDF></metadata></svg>