<?xml version="1.0" encoding="UTF-8"?><!DOCTYPE svg PUBLIC "-//W3C//DTD SVG 1.1//EN" "http://www.w3.org/Graphics/SVG/1.1/DTD/svg11.dtd"><svg xmlns="http://www.w3.org/2000/svg" xmlns:xlink="http://www.w3.org/1999/xlink" version="1.1" id="Layer_1" x="0px" y="0px" width="64px" height="64px" viewBox="0 0 64 64" xml:space="preserve"><path fill="#EBF7F7" d="M21 11h22v42H21z"/><path fill="#359846" d="M21 11H7c-3.3 0-6 2.4-6 5.8v30.4C1 50.6 3.7 53 7 53h14V11z"/><path fill="#EF4C4C" d="M57 11H43v42h14c3.3 0 6-2.4 6-5.8V16.8c0-3.4-2.7-5.8-6-5.8z"/><path fill="#DD4545" d="M57 11H43v30.1L56.8 53c3.3 0 6.2-2.4 6.2-5.8V16.8c0-3.4-2.7-5.8-6-5.8z"/><path fill="#E2F2F1" d="M43 41.1V11H21v11.9z"/><path fill="#258933" d="M21 11H7l14 11.9z"/><path fill="#CC3E3E" d="M43 53h14c3.3 0 6-2 6-6H43v6z"/><path fill="#D6EAE8" d="M21 47h22v6H21z"/><path fill="#15721E" d="M1 47c0 4 2.7 6 6 6h14v-6H1z"/><path fill="#CC3E3E" d="M57 11H43v10.6l20 6.2v-11c0-3.4-2.7-5.8-6-5.8z"/><path fill="#D6EAE8" d="M43 21.6V11H21v4.1z"/><path fill="#15721E" d="M21 11H7l14 4.1z"/><metadata><rdf:RDF xmlns:rdf="http://www.w3.org/1999/02/22-rdf-syntax-ns#" xmlns:rdfs="http://www.w3.org/2000/01/rdf-schema#" xmlns:dc="http://purl.org/dc/elements/1.1/"><rdf:Description about="https://iconscout.com/legal#licenses" dc:title="italy" dc:description="italy" dc:publisher="Iconscout" dc:date="2018-02-05" dc:format="image/svg+xml" dc:language="en"><dc:creator><rdf:Bag><rdf:li>Roundicons.com</rdf:li></rdf:Bag></dc:creator></rdf:Description></rdf:RDF></metadata></svg>