<svg xmlns="http://www.w3.org/2000/svg" width="50" height="50" enable-background="new 0 0 50 50" viewBox="0 0 50 50"><rect width="0" height="0" x="5" y="5" fill="#E5C645"/><polygon fill="#FDC457" points="25 5 5 20.4 19.7 33 30.3 33 45 20.4"/><polygon points="25 5 5 20.4 19.7 33 30.3 33 45 20.4" opacity=".25"/><polyline fill="#ECECEC" points="11 33 11 5 39 5 39 33"/><path fill="#FDC457" d="M19.7 33L5.9 44.7c-.1-.1-.3-.2-.4-.3C5.2 44 5 43.5 5 43V20.4L19.7 33zM45 20.4V43c0 .5-.2 1-.5 1.3-.1.1-.3.3-.4.3L30.3 33 45 20.4z"/><path d="M19.7 33L5.9 44.7c-.1-.1-.3-.2-.4-.3C5.2 44 5 43.5 5 43V20.4L19.7 33zM45 20.4V43c0 .5-.2 1-.5 1.3-.1.1-.3.3-.4.3L30.3 33 45 20.4z" opacity=".1"/><path fill="#FDC457" d="M30.3,33l13.8,11.7C43.8,44.9,43.4,45,43,45H7c-0.4,0-0.8-0.1-1.1-0.3L19.7,33H30.3z"/><rect width="16" height="2" x="17" y="11" opacity=".2"/><rect width="14" height="2" x="17" y="15" opacity=".2"/><rect width="16" height="2" x="17" y="19" opacity=".2"/><rect width="14" height="2" x="17" y="23" opacity=".2"/></svg>