<svg xmlns="http://www.w3.org/2000/svg" enable-background="new 0 0 64 64" viewBox="0 0 64 64"><path fill="#C7D9F9" d="M40.9,4.7v3.8H19.3c-2,0-3.7,1.7-3.7,3.7v35.9h-3.8c-2,0-3.7-1.6-3.7-3.7V4.7c0-2,1.7-3.7,3.7-3.7h25.4
		C39.3,1,40.9,2.7,40.9,4.7z"/><path fill="none" stroke="#2A3C65" stroke-linecap="round" stroke-linejoin="round" stroke-miterlimit="10" stroke-width="1.5" d="
		M12.6,48.1h-0.8c-2,0-3.7-1.6-3.7-3.7V4.7c0-2,1.7-3.7,3.7-3.7h25.4c2,0,3.7,1.6,3.7,3.7v0.8"/><path fill="#E3ECFF" d="M48.4,12.2V16H26.8c-2,0-3.7,1.7-3.7,3.7v35.9h-3.8c-2,0-3.7-1.7-3.7-3.7V12.2c0-2,1.6-3.7,3.7-3.7h25.4
		C46.7,8.5,48.4,10.1,48.4,12.2z"/><path fill="none" stroke="#2A3C65" stroke-linecap="round" stroke-linejoin="round" stroke-miterlimit="10" stroke-width="1.5" d="
		M20.1,55.5h-0.8c-2,0-3.7-1.7-3.7-3.7V12.2c0-2,1.6-3.7,3.7-3.7h25.4c2,0,3.7,1.7,3.7,3.7V13"/><path fill="#FFF" stroke="#2A3C65" stroke-linecap="round" stroke-linejoin="round" stroke-miterlimit="10" stroke-width="1.5" d="
		M52.2,63H26.8c-2,0-3.7-1.7-3.7-3.7V19.6c0-2,1.7-3.7,3.7-3.7h25.4c2,0,3.7,1.7,3.7,3.7v39.7C55.9,61.3,54.2,63,52.2,63z"/><rect width="23.7" height="5.2" x="27.6" y="22.1" fill="#FF5892"/><rect width="23.7" height="5.2" x="27.6" y="22.1" fill="none" stroke="#2A3C65" stroke-linecap="round" stroke-linejoin="round" stroke-miterlimit="10"/><line x1="51.3" x2="27.6" y1="33.9" y2="33.9" fill="none" stroke="#2A3C65" stroke-linecap="round" stroke-linejoin="round" stroke-miterlimit="10"/><line x1="27.6" x2="51.3" y1="30.6" y2="30.6" fill="none" stroke="#2A3C65" stroke-linecap="round" stroke-linejoin="round" stroke-miterlimit="10"/><line x1="27.6" x2="51.3" y1="33.9" y2="33.9" fill="none" stroke="#2A3C65" stroke-linecap="round" stroke-linejoin="round" stroke-miterlimit="10"/><line x1="51.3" x2="27.6" y1="37.2" y2="37.2" fill="none" stroke="#2A3C65" stroke-linecap="round" stroke-linejoin="round" stroke-miterlimit="10"/><line x1="27.6" x2="51.3" y1="40.5" y2="40.5" fill="none" stroke="#2A3C65" stroke-linecap="round" stroke-linejoin="round" stroke-miterlimit="10"/><line x1="51.3" x2="27.6" y1="43.7" y2="43.7" fill="none" stroke="#2A3C65" stroke-linecap="round" stroke-linejoin="round" stroke-miterlimit="10"/><line x1="27.6" x2="51.3" y1="47" y2="47" fill="none" stroke="#2A3C65" stroke-linecap="round" stroke-linejoin="round" stroke-miterlimit="10"/><line x1="51.3" x2="27.6" y1="50.3" y2="50.3" fill="none" stroke="#2A3C65" stroke-linecap="round" stroke-linejoin="round" stroke-miterlimit="10"/><line x1="27.6" x2="51.3" y1="53.6" y2="53.6" fill="none" stroke="#2A3C65" stroke-linecap="round" stroke-linejoin="round" stroke-miterlimit="10"/><line x1="41.4" x2="27.6" y1="56.9" y2="56.9" fill="none" stroke="#2A3C65" stroke-linecap="round" stroke-linejoin="round" stroke-miterlimit="10"/></svg>