<svg xmlns="http://www.w3.org/2000/svg" width="512" height="512" enable-background="new 0 0 512 512" viewBox="0 0 512 512"><rect width="72" height="240" x="48" y="152" fill="#231F20"/><polygon fill="#231F20" points="321.912 48.333 96 48.333 96 464 416 464 416 142.029"/><polygon fill="#F1F2F2" points="312 72.333 120 72.333 120 440 392 440 392 152"/><polygon fill="#6D6E71" points="392 152 312 152 312 72"/><polygon fill="#E6E7E8" points="312 152 392 152 392 232"/><linearGradient id="a" x1="204" x2="204" y1="153.154" y2="392.804" gradientUnits="userSpaceOnUse"><stop offset="0" stop-color="#f1f2f2"/><stop offset="1" stop-color="#e6e7e8"/></linearGradient><rect width="167.999" height="240" x="120" y="152" fill="url(#a)"/><rect width="192" height="192" x="72" y="176" fill="#FF960B"/><path fill="#FFF" d="M208,244v-32H96v88h32v32h112v-88H208z M112,284v-48h80v48H112z M224,316h-80v-16h64v-32h16V316z"/></svg>