<svg xmlns="http://www.w3.org/2000/svg" width="128" height="128" data-name="Layer 1" viewBox="0 0 128 128"><rect width="124" height="81.75" x="2" fill="#94e1e4"/><polygon fill="#e1ebf4" points="25.75 84 38.62 127.926 89.38 127.926 102 84 25.75 84"/><rect width="90.125" height="10.125" x="18.75" y="73.875" fill="#d68751"/><path fill="#2d4356" d="M126 0a2.0001 2.0001 0 0 0-2 2V15.5a2 2 0 0 0 4 0V2A2.0001 2.0001 0 0 0 126 0zM67.88 43.29l-1.34.67a6.24319 6.24319 0 0 1-5.08 0l-1.34-.67a1.99463 1.99463 0 0 1 1.76-3.58l1.35.66a2.26362 2.26362 0 0 0 1.54 0l1.35-.66a1.99463 1.99463 0 0 1 1.76 3.58zM61 31a2.00591 2.00591 0 0 1-2 2H55a2 2 0 0 1 0-4h4A2.00587 2.00587 0 0 1 61 31zM76 31a2.00591 2.00591 0 0 1-2 2H70a2 2 0 0 1 0-4h4A2.00587 2.00587 0 0 1 76 31z"/><path fill="#2d4356" d="M126,23.5a2.00587,2.00587,0,0,0-2,2V80H111.5V74a2.00587,2.00587,0,0,0-2-2h-6V50a1.98671,1.98671,0,0,0-1.06-1.76l-5.97-3.2L96.9,44.23a1.99339,1.99339,0,0,0-.84-2.7l-5.5-2.89a2.00754,2.00754,0,0,0-2.7.84l-2.89,5.5A2.03061,2.03061,0,0,0,84.84,46.51a1.99459,1.99459,0,0,0,.98,1.17l5.5,2.89a2.00957,2.00957,0,0,0,.92.22,1.97,1.97,0,0,0,1.77-1.07l.6-1.14L99.5,51.2V72H89V64.11A7.36736,7.36736,0,0,0,81.41,57h-.37c-3.7,0-6.71-2.67-6.71-5.96V49.09a19.93682,19.93682,0,0,0,9.65-16.76,10.7688,10.7688,0,0,0,3.6-5.89c.82-3.27,1.12-10-6.13-18.43C69.17-6.24,57.8,2.15,53.52,5.3c-.49.36-.91.67-1.17.83a5.02532,5.02532,0,0,1-1.77.2c-3.79.07-7.98.88-9.83,9.63-2.62,12.33,2.46,18.25,3.55,19.35a20.04619,20.04619,0,0,0,9.8,14.05v1.68C54.1,54.33,51.09,57,47.39,57h-.8A7.36736,7.36736,0,0,0,39,64.11V72H28.75V51.2L33.63,48.58l.6,1.14A1.99216,1.99216,0,0,0,36,50.79a2.0203,2.0203,0,0,0,.93-.22l5.5-2.89a1.99335,1.99335,0,0,0,.84-2.7l-2.88-5.5a2.00041,2.00041,0,0,0-2.7-.84l-5.5,2.89a1.99034,1.99034,0,0,0-.84,2.7l.42.81-5.97,3.2A1.97767,1.97767,0,0,0,24.75,50V72H18.5a2.00587,2.00587,0,0,0-2,2v6H4V2A2,2,0,0,0,0,2V82a2.00591,2.00591,0,0,0,2,2H16.5a2.00591,2.00591,0,0,0,2,2h6.29l11.36,40.54a2.00412,2.00412,0,1,0,3.86-1.08L28.94,86H36a2,2,0,0,0,0-4H20.5V76h87v6H46a2,2,0,0,0,0,4H99.06L87.99,125.46a2.00412,2.00412,0,0,0,3.86,1.08L103.21,86h6.29a2.00591,2.00591,0,0,0,2-2H126a2.00591,2.00591,0,0,0,2-2V25.5A2.00587,2.00587,0,0,0,126,23.5ZM91.4,46.09l-1.95-1.02,1.02-1.96,1.96,1.03ZM37.77,43.11l1.03,1.96-1.96,1.02-1.02-1.95Zm9.16-19.13c.04.3.1.6.14.89a7.32229,7.32229,0,0,1-1.48,5.55c.19-.23-1.26-4.48-1.35-5.11a23.5036,23.5036,0,0,1-.1-5.56c.28-2.71,1.02-8.36,4.25-9.15a18.76325,18.76325,0,0,1,2.49-.26c4.76-.53,8.24-4.93,12.89-6.1a12.61579,12.61579,0,0,1,9.47,1.77,24.3808,24.3808,0,0,1,6.94,6.97,20.8018,20.8018,0,0,1,3.56,7.44,9.9757,9.9757,0,0,1-1.41,7.94c-.85-.94-.72-2.36-.66-3.62.07-1.27-.12-2.77-1.23-3.37a4.49723,4.49723,0,0,0-2.31-.21,10.44411,10.44411,0,0,1-8.95-4.46c-.69-1.02-1.46-2.32-2.7-2.28a3.40754,3.40754,0,0,0-1.88,1,24.11723,24.11723,0,0,1-13.85,5.45c-1.43.08-3.2.25-3.74,1.58A2.92391,2.92391,0,0,0,46.93,23.98Zm1.23,10.16c2.67-3.96,3.16-7.15,3.05-9.21a39.17962,39.17962,0,0,0,8.1-1.88,25.37954,25.37954,0,0,0,5.52-2.74l.03-.03q.66-.435,1.26-.9a15.00548,15.00548,0,0,0,7.04,5.06,15.56384,15.56384,0,0,0,4.41.77,11.71971,11.71971,0,0,0,1.85,6.31,6.44488,6.44488,0,0,0,.57.7,15.98672,15.98672,0,0,1-31.83,1.92ZM70.33,50.96v.03l-6.12,6.27-5.96-6.11A19.84535,19.84535,0,0,0,64,52,20.09269,20.09269,0,0,0,70.33,50.96ZM56.83,72H43V64.11A3.37607,3.37607,0,0,1,46.59,61h.8a10.87889,10.87889,0,0,0,2.3-.24l6.54,6.71a1.99857,1.99857,0,0,0,1.42.6ZM53.66,59.1a10.37061,10.37061,0,0,0,3.28-3.57l4.1,4.21-3.38,3.47ZM60.92,72l1.7-8.15,1.59-1.63.94.96L67,72ZM71.49,55.53a10.37121,10.37121,0,0,0,3.28,3.57l-4,4.11-3.39-3.47ZM85,72H71.08l-.83-4.01a1.82137,1.82137,0,0,0,.52.08,2.00419,2.00419,0,0,0,1.43-.6l6.54-6.71a10.87889,10.87889,0,0,0,2.3.24h.37A3.37607,3.37607,0,0,1,85,64.11Z"/><polygon fill="#d68751" points="92.43 44.14 91.4 46.09 89.45 45.07 90.47 43.11 92.43 44.14"/><polygon fill="#d68751" points="38.8 45.07 36.84 46.09 35.82 44.14 37.77 43.11 38.8 45.07"/><path fill="#fc785e" d="M57.65,68.07,56.83,72H43V64.11A3.37607,3.37607,0,0,1,46.59,61h.8a10.87889,10.87889,0,0,0,2.3-.24l6.54,6.71A1.99857,1.99857,0,0,0,57.65,68.07Z"/><path fill="#ffdb80" d="M61.04,59.74l-3.38,3.47-4-4.11a10.37061,10.37061,0,0,0,3.28-3.57Z"/><polygon fill="#ffdb80" points="67 72 60.92 72 62.62 63.85 64.21 62.22 65.15 63.18 67 72"/><path fill="#e1ebf4" d="M70.33,50.96v.03l-6.12,6.27-5.96-6.11A19.84535,19.84535,0,0,0,64,52,20.09269,20.09269,0,0,0,70.33,50.96Z"/><path fill="#fc785e" d="M85,64.11V72H71.08l-.83-4.01a1.82137,1.82137,0,0,0,.52.08,2.00419,2.00419,0,0,0,1.43-.6l6.54-6.71a10.87889,10.87889,0,0,0,2.3.24h.37A3.37607,3.37607,0,0,1,85,64.11Z"/><path fill="#ffdb80" d="M74.77,59.1l-4,4.11-3.39-3.47,4.11-4.21A10.37121,10.37121,0,0,0,74.77,59.1Z"/><path fill="#e1ebf4" d="M79.42,31.52a11.71971,11.71971,0,0,1-1.85-6.31,15.56384,15.56384,0,0,1-4.41-.77,15.00548,15.00548,0,0,1-7.04-5.06q-.6.465-1.26.9l-.03.03a25.37954,25.37954,0,0,1-5.52,2.74,39.17962,39.17962,0,0,1-8.1,1.88c.11,2.06-.38,5.25-3.05,9.21a15.98672,15.98672,0,0,0,31.83-1.92A6.44488,6.44488,0,0,1,79.42,31.52ZM55,33a2,2,0,0,1,0-4h4a2,2,0,0,1,0,4ZM67.88,43.29l-1.34.67a6.24319,6.24319,0,0,1-5.08,0l-1.34-.67a1.99463,1.99463,0,0,1,1.76-3.58l1.35.66a2.26362,2.26362,0,0,0,1.54,0l1.35-.66a1.99463,1.99463,0,0,1,1.76,3.58ZM74,33H70a2,2,0,0,1,0-4h4a2,2,0,0,1,0,4Z"/><path fill="#d68751" d="M81.67,24.74c.07-1.27-.12-2.77-1.23-3.37a4.49723,4.49723,0,0,0-2.31-.21,10.44411,10.44411,0,0,1-8.95-4.46c-.69-1.02-1.46-2.32-2.7-2.28a3.40754,3.40754,0,0,0-1.88,1,24.11723,24.11723,0,0,1-13.85,5.45c-1.43.08-3.2.25-3.74,1.58a2.92391,2.92391,0,0,0-.08,1.53c.04.3.1.6.14.89a7.32229,7.32229,0,0,1-1.48,5.55c.19-.23-1.26-4.48-1.35-5.11a23.5036,23.5036,0,0,1-.1-5.56c.28-2.71,1.02-8.36,4.25-9.15a18.76325,18.76325,0,0,1,2.49-.26c4.76-.53,8.24-4.93,12.89-6.1a12.61579,12.61579,0,0,1,9.47,1.77,24.3808,24.3808,0,0,1,6.94,6.97,20.8018,20.8018,0,0,1,3.56,7.44,9.9757,9.9757,0,0,1-1.41,7.94C81.48,27.42,81.61,26,81.67,24.74Z"/><rect width="87" height="2" x="20.5" y="76" fill="#e5d0c3" opacity=".3"/><path fill="#f9dbd7" d="M85 64.11v2A3.37607 3.37607 0 0 0 81.41 63h-.37c-.32 0-2.22-.01-4.45-.04l2.15-2.2a10.87889 10.87889 0 0 0 2.3.24h.37A3.37607 3.37607 0 0 1 85 64.11zM49.69 60.76l2.15 2.2c-2.22.03-4.14.04-4.45.04h-.8A3.37607 3.37607 0 0 0 43 66.11v-2A3.37607 3.37607 0 0 1 46.59 61h.8A10.87889 10.87889 0 0 0 49.69 60.76z" opacity=".3"/><rect width="12.5" height="2" x="4" y="78" fill="#0f423c" opacity=".3"/><rect width="12.5" height="2" x="111.5" y="78" fill="#0f423c" opacity=".3"/><path fill="#e5d0c3" d="M83.95,23.88a10.2687,10.2687,0,0,0-.21-1.46,20.8018,20.8018,0,0,0-3.56-7.44,24.3808,24.3808,0,0,0-6.94-6.97,12.61579,12.61579,0,0,0-9.47-1.77c-4.65,1.17-8.13,5.57-12.89,6.1a18.76325,18.76325,0,0,0-2.49.26c-3.23.79-3.97,6.44-4.25,9.15-.05.46-.08.92-.1,1.38a22.4254,22.4254,0,0,1,.1-3.38c.28-2.71,1.02-8.36,4.25-9.15a18.76325,18.76325,0,0,1,2.49-.26c4.76-.53,8.24-4.93,12.89-6.1a12.61579,12.61579,0,0,1,9.47,1.77,24.3808,24.3808,0,0,1,6.94,6.97,20.8018,20.8018,0,0,1,3.56,7.44A11.49159,11.49159,0,0,1,83.95,23.88Z" opacity=".3"/><path fill="#9fa5aa" d="M79.99 32.22a15.98672 15.98672 0 0 1-31.83 1.92c.1-.15.2-.3.29-.44a15.9869 15.9869 0 0 0 31.41-1.63C79.9 32.12 79.95 32.17 79.99 32.22zM70.33 50.96v.03l-2.58 2.65A20.202 20.202 0 0 1 64 54a19.11381 19.11381 0 0 1-3.23-.27l-2.52-2.58A19.84535 19.84535 0 0 0 64 52 20.09269 20.09269 0 0 0 70.33 50.96z" opacity=".5"/><path fill="#ad9359" d="M54.77 58.24l3.89 3.95-1 1.02-4-4.11A13.65164 13.65164 0 0 0 54.77 58.24zM74.77 59.1l-4 4.11-1-1.03 3.89-3.94A13.65165 13.65165 0 0 0 74.77 59.1z" opacity=".3"/><path fill="#72492d" d="M38 82a1.99441 1.99441 0 0 1-.27 1A1.996 1.996 0 0 0 36 82H20.5V80H36A2.00587 2.00587 0 0 1 38 82zM107.5 80v2H46a1.996 1.996 0 0 0-1.73 1A1.99718 1.99718 0 0 1 46 80z" opacity=".4"/></svg>