<svg xmlns="http://www.w3.org/2000/svg" enable-background="new 0 0 64 64" viewBox="0 0 64 64"><path fill="#02BEFF" d="M20.5,63v-2.7c0-2.5-2-4.5-4.5-4.5h-3.9c-2.5,0-4.5,2-4.5,4.5V63"/><path fill="#06D506" d="M38.4,63v-2.7c0-2.5-2-4.5-4.5-4.5H30c-2.5,0-4.5,2-4.5,4.5V63"/><path fill="#FF5892" d="M56.3,63v-2.7c0-2.5-2-4.5-4.5-4.5h-3.9c-2.5,0-4.5,2-4.5,4.5V63"/><circle cx="14.1" cy="49.8" r="3.1" fill="#C7D9F9"/><circle cx="32" cy="49.8" r="3.1" fill="#C7D9F9"/><circle cx="49.9" cy="49.8" r="3.1" fill="#C7D9F9"/><circle cx="23.1" cy="45.1" r="3.1" fill="#C7D9F9"/><circle cx="40.9" cy="45.1" r="3.1" fill="#C7D9F9"/><path fill="#E3ECFF" d="M56.3,4.8v22.7c0,2.1-1.7,3.8-3.8,3.8h-41c-2.1,0-3.8-1.7-3.8-3.8V4.8C7.7,2.7,9.4,1,11.5,1h40.9
			C54.6,1,56.3,2.7,56.3,4.8z"/><path fill="#FECB4D" d="M20.6,19.3h-4.3c-2.8,0-5,2.3-5,5v3.8h14.4v-3.8C25.7,21.5,23.4,19.3,20.6,19.3z"/><polyline fill="#FFF" points="28.2 36.8 29.2 28.1 7.7 28.1 8.7 36.8"/><rect width="3.2" height="8.1" x="31.9" y="14.3" fill="#02BEFF"/><rect width="3.2" height="12.3" x="37" y="10.1" fill="#FF5892"/><rect width="3.2" height="5.9" x="42.2" y="16.5" fill="#E3ECFF"/><rect width="3.2" height="10.2" x="47.4" y="12.3" fill="#CC87FE"/><g><path fill="none" stroke="#2A3C65" stroke-linecap="round" stroke-linejoin="round" stroke-miterlimit="10" stroke-width="1.5" d="M20.5 63v-2.7c0-2.5-2-4.5-4.5-4.5h-3.9c-2.5 0-4.5 2-4.5 4.5V63M38.4 63v-2.7c0-2.5-2-4.5-4.5-4.5H30c-2.5 0-4.5 2-4.5 4.5V63M56.3 63v-2.7c0-2.5-2-4.5-4.5-4.5h-3.9c-2.5 0-4.5 2-4.5 4.5V63M31.9 31.3h20.6c2.1 0 3.8-1.7 3.8-3.8V4.8c0-2.1-1.7-3.8-3.8-3.8h-41C9.4 1 7.7 2.7 7.7 4.8v20.3"/><path fill="none" stroke="#2A3C65" stroke-linecap="round" stroke-linejoin="round" stroke-miterlimit="10" d="M25.7,25.1v-0.8
			c0-2.8-2.3-5-5-5h-4.3c-2.8,0-5,2.3-5,5v0.8"/><circle cx="18.5" cy="13.3" r="3.5" fill="#FFF"/><circle cx="18.5" cy="13.3" r="3.5" fill="none" stroke="#2A3C65" stroke-linecap="round" stroke-linejoin="round" stroke-miterlimit="10"/><line x1="18.5" x2="18.5" y1="22.4" y2="22.8" fill="none" stroke="#2A3C65" stroke-linecap="round" stroke-linejoin="round" stroke-miterlimit="10"/><line x1="18.5" x2="18.5" y1="25.4" y2="25.9" fill="none" stroke="#2A3C65" stroke-linecap="round" stroke-linejoin="round" stroke-miterlimit="10"/><polyline fill="none" stroke="#2A3C65" stroke-linecap="round" stroke-linejoin="round" stroke-miterlimit="10" stroke-width="1.5" points="28.2 36.8 29.2 28.1 7.7 28.1 8.7 36.8"/><rect width="3.2" height="8.1" x="31.9" y="14.3" fill="none" stroke="#2A3C65" stroke-linecap="round" stroke-linejoin="round" stroke-miterlimit="10"/><rect width="3.2" height="12.3" x="37" y="10.1" fill="none" stroke="#2A3C65" stroke-linecap="round" stroke-linejoin="round" stroke-miterlimit="10"/><rect width="3.2" height="5.9" x="42.2" y="16.5" fill="none" stroke="#2A3C65" stroke-linecap="round" stroke-linejoin="round" stroke-miterlimit="10"/><rect width="3.2" height="10.2" x="47.4" y="12.3" fill="none" stroke="#2A3C65" stroke-linecap="round" stroke-linejoin="round" stroke-miterlimit="10"/><circle cx="14.1" cy="49.8" r="3.1" fill="none" stroke="#2A3C65" stroke-linecap="round" stroke-linejoin="round" stroke-miterlimit="10" stroke-width="1.5"/><circle cx="32" cy="49.8" r="3.1" fill="none" stroke="#2A3C65" stroke-linecap="round" stroke-linejoin="round" stroke-miterlimit="10" stroke-width="1.5"/><circle cx="49.9" cy="49.8" r="3.1" fill="none" stroke="#2A3C65" stroke-linecap="round" stroke-linejoin="round" stroke-miterlimit="10" stroke-width="1.5"/><circle cx="23.1" cy="45.1" r="3.1" fill="none" stroke="#2A3C65" stroke-linecap="round" stroke-linejoin="round" stroke-miterlimit="10" stroke-width="1.5"/><circle cx="40.9" cy="45.1" r="3.1" fill="none" stroke="#2A3C65" stroke-linecap="round" stroke-linejoin="round" stroke-miterlimit="10" stroke-width="1.5"/></g></svg>