<svg xmlns="http://www.w3.org/2000/svg" width="64" height="64"><path fill="#434A54" d="M49.706 34.707a.999.999 0 0 1 1.414 0l3.585 3.582a.996.996 0 0 1 .294.708V50a1 1 0 1 1-2 0V39.411l-3.293-3.29a.999.999 0 0 1 0-1.414z"/><path fill="#656D78" d="m46.878 36.121-1-1a3.002 3.002 0 0 1 0-4.242c1.133-1.133 3.109-1.133 4.242 0l1 1A3.002 3.002 0 0 1 48.999 37a2.978 2.978 0 0 1-2.121-.879z"/><path fill="#434A54" d="M14.293 34.707a.999.999 0 0 0-1.414 0l-3.585 3.582a.996.996 0 0 0-.294.708V50a1 1 0 1 0 2 0V39.411l3.293-3.29a.999.999 0 0 0 0-1.414z"/><path fill="#656D78" d="m22 15-3 3v-5c0-6.63 5.36-12 12-12h8v4c3.311 0 6 2.68 6 6v7l-3-3s-4.57 2-10 2-10-2-10-2z"/><path fill="#434A54" d="M39 5V1h-4v6c3.311 0 6 2.68 6 6v2.384c.633-.226 1-.384 1-.384l3 3v-7c0-3.32-2.689-6-6-6z"/><path fill="#F5F7FA" d="M38 33.53V39l-3 2-3-1-3 1-3-2v-5.47c1.8.94 3.84 1.47 6 1.47s4.2-.53 6-1.47z"/><path fill="#EAC6BB" d="M45 18v4c0 5.02-2.84 9.37-7 11.53-1.8.94-3.84 1.47-6 1.47s-4.2-.53-6-1.47c-4.16-2.16-7-6.511-7-11.53v-4l3-3s4.57 2 10 2 10-2 10-2l3 3z"/><path fill="#D3B1A9" d="M42 15s-.367.158-1 .384V22c0 5.02-2.84 9.37-7 11.53a12.951 12.951 0 0 1-4 1.298c.654.102 1.318.172 2 .172 2.16 0 4.2-.53 6-1.47 4.16-2.16 7-6.511 7-11.53v-4l-3-3z"/><path fill="#5D9CEC" d="M49 46v4H15v-4c0-3.87 3.13-7 7-7h4l3 2 3-1 3 1 3-2h4c3.87 0 7 3.13 7 7z"/><path fill="#4A89DC" d="M42 39h-4c3.87 0 7 3.13 7 7v4h4v-4c0-3.87-3.13-7-7-7z"/><path fill="#434A54" d="m58 55-4 4h-2v-4z"/><path fill="#965353" d="M52 59v4H12v-8h40z"/><path fill="#844747" d="M48 55v8h4v-8z"/><path fill="#656D78" d="M58 50v5H6v-5h48z"/><path fill="#434A54" d="M12 55v4h-2l-4-4z"/><path fill="#656D78" d="M15 37a3.002 3.002 0 0 1-2.121-5.121l1-1c1.133-1.133 3.109-1.133 4.242 0a3.002 3.002 0 0 1 0 4.242l-1 1A2.978 2.978 0 0 1 15 37z"/></svg>