<svg xmlns="http://www.w3.org/2000/svg" width="128" height="128" data-name="Layer 1" viewBox="0 0 128 128"><rect width="124" height="16.667" x="2" y="111.333" fill="#e1ebf4"/><rect width="124.25" height="77.75" x="2" y="2.25" fill="#94e1e4"/><path fill="#2d4356" d="M62,16A26,26,0,1,0,88,42,25.99926,25.99926,0,0,0,62,16Zm0,48A22,22,0,1,1,84,42,22.026,22.026,0,0,1,62,64Z"/><path fill="#fc785e" d="M62,20A22,22,0,1,0,84,42,22.026,22.026,0,0,0,62,20ZM76.03,43.71c-.02.02-20,12-20,12A2.02267,2.02267,0,0,1,53,54V30a2.01738,2.01738,0,0,1,3.03-1.71c.02.01,20,12,20,12A2.01128,2.01128,0,0,1,76.03,43.71Z"/><path fill="#2d4356" d="M110,86a17.71589,17.71589,0,0,0-6.37,1.19,17.95233,17.95233,0,0,0-33.26,0,17.64406,17.64406,0,0,0-12.74,0,17.95233,17.95233,0,0,0-33.26,0A17.71589,17.71589,0,0,0,18,86,18.0207,18.0207,0,0,0,0,104v22a2,2,0,0,0,4,0v-5H32v5a2,2,0,0,0,4,0V112H46v14a2,2,0,0,0,4,0v-5H78v5a2,2,0,0,0,4,0V112H92v14a2,2,0,0,0,4,0v-5h28v5a2,2,0,0,0,4,0V104A18.0207,18.0207,0,0,0,110,86ZM32,117H4V104a14,14,0,0,1,28,0Zm14-13v4H36v-4a17.98583,17.98583,0,0,0-8.06-14.99,13.97023,13.97023,0,0,1,26.12,0A17.98583,17.98583,0,0,0,46,104Zm32,13H50V104a14,14,0,0,1,28,0Zm14-13v4H82v-4a17.98583,17.98583,0,0,0-8.06-14.99,13.97023,13.97023,0,0,1,26.12,0A17.98583,17.98583,0,0,0,92,104Zm32,13H96V104a14,14,0,0,1,28,0Z"/><path fill="#fc785e" d="M124,104v13H96V104a14,14,0,0,1,28,0Z"/><path fill="#ffdb80" d="M100.06 89.01A17.98583 17.98583 0 0 0 92 104v4H82v-4a17.98583 17.98583 0 0 0-8.06-14.99 13.97023 13.97023 0 0 1 26.12 0zM54.06 89.01A17.98583 17.98583 0 0 0 46 104v4H36v-4a17.98583 17.98583 0 0 0-8.06-14.99 13.97023 13.97023 0 0 1 26.12 0z"/><path fill="#fc785e" d="M78 104v13H50V104a14 14 0 0 1 28 0zM32 104v13H4V104a14 14 0 0 1 28 0z"/><path fill="#2d4356" d="M113,34a7,7,0,1,0,7,7A7.00771,7.00771,0,0,0,113,34Zm0,10a3,3,0,1,1,3-3A3.00879,3.00879,0,0,1,113,44Z"/><circle cx="113" cy="41" r="3" fill="#e1ebf4"/><path fill="#2d4356" d="M113,12.92a7,7,0,1,0,7,7A7.00771,7.00771,0,0,0,113,12.92Zm0,10a3,3,0,1,1,3-3A3.00234,3.00234,0,0,1,113,22.92Z"/><path fill="#e1ebf4" d="M116,19.92a3,3,0,1,1-3-3A3.00234,3.00234,0,0,1,116,19.92Z"/><path fill="#2d4356" d="M113,55.08a7,7,0,1,0,7,7A7.00767,7.00767,0,0,0,113,55.08Zm0,10a3,3,0,1,1,3-3A3.00883,3.00883,0,0,1,113,65.08Z"/><path fill="#e1ebf4" d="M116,62.08a3,3,0,1,1-3-3A3.00883,3.00883,0,0,1,116,62.08Z"/><path fill="#2d4356" d="M15,34a7,7,0,1,0,7,7A7.00771,7.00771,0,0,0,15,34Zm0,10a3,3,0,1,1,3-3A3.00879,3.00879,0,0,1,15,44Z"/><circle cx="15" cy="41" r="3" fill="#e1ebf4"/><path fill="#2d4356" d="M15,12.92a7,7,0,1,0,7,7A7.00771,7.00771,0,0,0,15,12.92Zm0,10a3,3,0,1,1,3-3A3.00234,3.00234,0,0,1,15,22.92Z"/><path fill="#e1ebf4" d="M18,19.92a3,3,0,1,1-3-3A3.00234,3.00234,0,0,1,18,19.92Z"/><path fill="#2d4356" d="M15,55.08a7,7,0,1,0,7,7A7.00767,7.00767,0,0,0,15,55.08Zm0,10a3,3,0,1,1,3-3A3.00883,3.00883,0,0,1,15,65.08Z"/><path fill="#e1ebf4" d="M18,62.08a3,3,0,1,1-3-3A3.00883,3.00883,0,0,1,18,62.08Z"/><path fill="#2d4356" d="M76.03,40.29s-19.98-11.99-20-12A2.01738,2.01738,0,0,0,53,30V54a2.02267,2.02267,0,0,0,3.03,1.71s19.98-11.98,20-12A2.01128,2.01128,0,0,0,76.03,40.29ZM57,50.47V33.53L71.11,42Z"/><polygon fill="#e1ebf4" points="71.11 42 57 50.47 57 33.53 71.11 42"/><path fill="#0f423c" d="M58.06379,80H69.93621a24.77357,24.77357,0,0,1,4.345-4H53.71875A24.77357,24.77357,0,0,1,58.06379,80Z" opacity=".3"/><path fill="#2d4356" d="M124,0H4A4.00427,4.00427,0,0,0,0,4V78a4.00427,4.00427,0,0,0,4,4H22.57507a22.156,22.156,0,0,1,3.34875-4H4V4H124l.00293,74H102.07617a22.156,22.156,0,0,1,3.34875,4H124a4.00427,4.00427,0,0,0,4-4V4A4.00427,4.00427,0,0,0,124,0Z"/><path fill="#0f423c" d="M27.938 76a21.73924 21.73924 0 0 0-2.04215 2H4V76zM124 76v2H102.10416a21.73924 21.73924 0 0 0-2.04215-2z" opacity=".3"/><rect width="120" height="2" x="4" y="4" fill="#e8fbfc" opacity=".3"/><path fill="#2d4356" d="M59.42493,82h9.15015a22.156,22.156,0,0,1,3.34875-4H56.07617A22.156,22.156,0,0,1,59.42493,82Z"/><path fill="#f9dbd7" d="M84,42c0,.34-.01.67-.03,1A21.99237,21.99237,0,0,0,40.03,43c-.02-.33-.03-.66-.03-1a22,22,0,0,1,44,0Z" opacity=".3"/><path fill="#a54b3f" d="M84,42a22,22,0,0,1-44,0c0-.34.01-.67.03-1A21.99237,21.99237,0,0,0,83.97,41C83.99,41.33,84,41.66,84,42Z" opacity=".5"/><polygon fill="#9fa5aa" points="71.11 42 57 50.47 57 48.47 69.44 41 71.11 42" opacity=".5"/><path fill="#9fa5aa" d="M116 62.08a3 3 0 1 1-6 0 2.77187 2.77187 0 0 1 .18-1 2.98811 2.98811 0 0 0 5.64 0A2.77187 2.77187 0 0 1 116 62.08zM116 41.08a3 3 0 1 1-6 0 2.77187 2.77187 0 0 1 .18-1 2.98811 2.98811 0 0 0 5.64 0A2.77187 2.77187 0 0 1 116 41.08zM116 20.08a3 3 0 1 1-6 0 2.77187 2.77187 0 0 1 .18-1 2.98811 2.98811 0 0 0 5.64 0A2.77187 2.77187 0 0 1 116 20.08zM18 62.08a3 3 0 0 1-6 0 2.77187 2.77187 0 0 1 .18-1 2.98811 2.98811 0 0 0 5.64 0A2.77187 2.77187 0 0 1 18 62.08zM18 41.08a3 3 0 0 1-6 0 2.77187 2.77187 0 0 1 .18-1 2.98811 2.98811 0 0 0 5.64 0A2.77187 2.77187 0 0 1 18 41.08zM18 20.08a3 3 0 0 1-6 0 2.77187 2.77187 0 0 1 .18-1 2.98811 2.98811 0 0 0 5.64 0A2.77187 2.77187 0 0 1 18 20.08z" opacity=".5"/><rect width="28" height="2" x="96" y="115" fill="#a54b3f" opacity=".5"/><rect width="10" height="2" x="82" y="106" fill="#ad9359" opacity=".3"/><rect width="28" height="2" x="50" y="115" fill="#a54b3f" opacity=".5"/><rect width="10" height="2" x="36" y="106" fill="#ad9359" opacity=".3"/><rect width="28" height="2" x="4" y="115" fill="#a54b3f" opacity=".5"/><path fill="#f9dbd7" d="M78 104v2a14 14 0 0 0-28 0v-2a14 14 0 0 1 28 0zM124 104v2a14 14 0 0 0-28 0v-2a14 14 0 0 1 28 0z" opacity=".3"/><path fill="#f9edd2" d="M100.06 89.01c-.23.16-.47.32-.69.49a13.95112 13.95112 0 0 0-24.74 0c-.22-.17-.46-.33-.69-.49a13.97023 13.97023 0 0 1 26.12 0zM54.06 89.01c-.23.16-.47.32-.69.49a13.95112 13.95112 0 0 0-24.74 0c-.22-.17-.46-.33-.69-.49a13.97023 13.97023 0 0 1 26.12 0z" opacity=".5"/><path fill="#f9dbd7" d="M32,104v2a14,14,0,0,0-28,0v-2a14,14,0,0,1,28,0Z" opacity=".3"/></svg>