<svg xmlns="http://www.w3.org/2000/svg" enable-background="new 0 0 64 64" viewBox="0 0 64 64"><path fill="#E3ECFF" d="M54,1H10C7.8,1,5.9,2.8,5.9,5.1v24.4c0,2.3,1.8,4.1,4.1,4.1h44c2.3,0,4.1-1.8,4.1-4.1v-4.3V10.6V5.1
		C58.1,2.8,56.2,1,54,1z"/><circle cx="32" cy="17" r="8.8" fill="#FF5892"/><path fill="#FFF" d="M35.3,15.8l-3.7-2.1c-0.9-0.5-2,0.1-2,1.2v4.3c0,1,1.1,1.7,2,1.2l3.7-2.1C36.3,17.7,36.3,16.4,35.3,15.8z"/><path fill="#02BEFF" d="M19.7,63v-2.9c0-2.7-2.2-4.8-4.8-4.8h-4.1c-2.7,0-4.8,2.2-4.8,4.8V63"/><path fill="#FECB4D" d="M38.9,63v-2.9c0-2.7-2.2-4.8-4.8-4.8H30c-2.7,0-4.8,2.2-4.8,4.8V63"/><path fill="#CC87FE" d="M58.1,63v-2.9c0-2.7-2.2-4.8-4.8-4.8h-4.1c-2.7,0-4.8,2.2-4.8,4.8V63"/><circle cx="32" cy="48.8" r="3.4" fill="#C7D9F9"/><circle cx="22.4" cy="43.8" r="3.4" fill="#C7D9F9"/><circle cx="41.6" cy="43.8" r="3.4" fill="#C7D9F9"/><circle cx="12.8" cy="48.8" r="3.4" fill="#C7D9F9"/><circle cx="51.2" cy="48.8" r="3.4" fill="#C7D9F9"/><path fill="none" stroke="#2A3C65" stroke-linecap="round" stroke-linejoin="round" stroke-miterlimit="10" stroke-width="1.5" d="
		M19.7,63v-2.9c0-2.7-2.2-4.8-4.8-4.8h-4.1c-2.7,0-4.8,2.2-4.8,4.8V63"/><circle cx="12.8" cy="48.8" r="3.4" fill="none" stroke="#2A3C65" stroke-miterlimit="10" stroke-width="1.5"/><circle cx="51.2" cy="48.8" r="3.4" fill="none" stroke="#2A3C65" stroke-miterlimit="10" stroke-width="1.5"/><path fill="none" stroke="#2A3C65" stroke-linecap="round" stroke-linejoin="round" stroke-miterlimit="10" stroke-width="1.5" d="
		M38.9,63v-2.9c0-2.7-2.2-4.8-4.8-4.8H30c-2.7,0-4.8,2.2-4.8,4.8V63"/><circle cx="32" cy="48.8" r="3.4" fill="none" stroke="#2A3C65" stroke-linecap="round" stroke-linejoin="round" stroke-miterlimit="10" stroke-width="1.5"/><path fill="none" stroke="#2A3C65" stroke-linecap="round" stroke-linejoin="round" stroke-miterlimit="10" stroke-width="1.5" d="
		M58.1,63v-2.9c0-2.7-2.2-4.8-4.8-4.8h-4.1c-2.7,0-4.8,2.2-4.8,4.8V63"/><circle cx="22.4" cy="43.8" r="3.4" fill="none" stroke="#2A3C65" stroke-linecap="round" stroke-linejoin="round" stroke-miterlimit="10" stroke-width="1.5"/><circle cx="41.6" cy="43.8" r="3.4" fill="none" stroke="#2A3C65" stroke-linecap="round" stroke-linejoin="round" stroke-miterlimit="10" stroke-width="1.5"/><path fill="none" stroke="#2A3C65" stroke-miterlimit="10" stroke-width="1.5" d="M54,1H10C7.8,1,5.9,2.8,5.9,5.1v24.4
		c0,2.3,1.8,4.1,4.1,4.1h44c2.3,0,4.1-1.8,4.1-4.1v-4.3V10.6V5.1C58.1,2.8,56.2,1,54,1z"/><circle cx="32" cy="17" r="8.8" fill="none" stroke="#2A3C65" stroke-miterlimit="10"/><path fill="none" stroke="#2A3C65" stroke-miterlimit="10" d="M35.3,15.8l-3.7-2.1c-0.9-0.5-2,0.1-2,1.2v4.3c0,1,1.1,1.7,2,1.2
		l3.7-2.1C36.3,17.7,36.3,16.4,35.3,15.8z"/></svg>