<svg xmlns="http://www.w3.org/2000/svg" viewBox="0 0 32 32"><path fill="#a4d06c" d="M13.507 3.499h16v12.999h-16z"/><circle cx="21.5" cy="9.999" r="4" fill="#fff"/><path fill="#f89d6a" d="M20.534 10V8.307L22 9.154l1.466.846-1.466.846-1.466.847z"/><path fill="#ffda87" d="M4.519 14.484v2.3a2.5 2.5 0 1 0 5 0v-2.3h-5z"/><path fill="#5b5d70" d="M9.117 11.986l-2.85-.475a1.184 1.184 0 0 0-1.379 1.168v.032a.978.978 0 0 0-.956 1.182l.575 1.648 1-1.017h3l1 1.017.601-2.147a1.209 1.209 0 0 0-.991-1.408z"/><path fill="#66abd4" d="M8.52 18.78v1.721l.879.33a2 2 0 0 0 2.003-.354l4.602-3.941 1.742 1.742-6.955 6.955a1 1 0 0 0-.293.71l.008 2.558H1.493v-5.114a2 2 0 0 1 1.298-1.873l2.702-1.013v-1.728"/><path fill="#ffda87" d="M8.52 18.999v1.44a1.513 1.513 0 0 1-3.026 0v-1.44M17.746 18.278l-1.742-1.742 1.514-1.514 1.035 1.035a.999.999 0 0 1 0 1.414l-.807.807z"/><path fill="#4f5266" d="M29.507 16.998a.5.5 0 0 1-.5-.5v-12.5h-15v12.5a.5.5 0 0 1-1 0v-13a.5.5 0 0 1 .5-.5h16a.5.5 0 0 1 .5.5v13a.5.5 0 0 1-.5.5z"/><path fill="#4f5266" d="M30.507 3.998h-18a.5.5 0 0 1 0-1h18a.5.5 0 0 1 0 1zM16.007 16.998h-3.5a.5.5 0 0 1 0-1h3.5a.5.5 0 0 1 0 1zM30.507 16.998h-11.5a.5.5 0 0 1 0-1h11.5a.5.5 0 0 1 0 1zM21.5 14.498c-2.481 0-4.5-2.019-4.5-4.5s2.019-4.5 4.5-4.5 4.5 2.019 4.5 4.5-2.019 4.5-4.5 4.5zm0-8c-1.93 0-3.5 1.57-3.5 3.5s1.57 3.5 3.5 3.5 3.5-1.57 3.5-3.5-1.57-3.5-3.5-3.5z"/><path fill="#4f5266" d="M20.534 12.193a.5.5 0 0 1-.5-.5V8.307a.5.5 0 0 1 .75-.433l2.932 1.693a.5.5 0 0 1 0 .866l-2.932 1.693a.496.496 0 0 1-.25.067zm.5-3.02v1.654L22.466 10l-1.432-.827zM7.019 19.784c-1.654 0-3-1.346-3-3v-1.389h1v1.389c0 1.103.897 2 2 2s2-.897 2-2v-1.389h1v1.389c0 1.654-1.346 3-3 3z"/><path fill="#4f5266" d="M9.507 16.042a.5.5 0 0 1-.356-.149l-.854-.867h-2.58l-.854.867a.497.497 0 0 1-.828-.185L3.46 14.06c-.111-.499-.003-.95.279-1.3.185-.228.428-.392.699-.479.085-.35.273-.656.545-.886a1.668 1.668 0 0 1 1.366-.377l2.85.476c.455.075.852.325 1.117.702a1.7 1.7 0 0 1 .283 1.289l-.611 2.191a.501.501 0 0 1-.481.366zm-3.435-4.047a.687.687 0 0 0-.684.685c0 .276-.224.531-.5.531a.477.477 0 0 0-.467.578l.292.83.438-.445a.499.499 0 0 1 .356-.149h3a.5.5 0 0 1 .356.149l.395.401.368-1.315a.699.699 0 0 0-.128-.489.7.7 0 0 0-.463-.291l-2.85-.476a.86.86 0 0 0-.113-.009zM3.97 29.002a.5.5 0 0 1-.5-.5v-3.12c0-.31-.115-.606-.323-.835l-.363-.397a.499.499 0 1 1 .738-.674l.362.396c.377.414.585.949.585 1.509v3.12a.499.499 0 0 1-.499.501z"/><path fill="#4f5266" d="M1.493 29.002a.5.5 0 0 1-.5-.5v-5.114c0-1.036.652-1.977 1.622-2.341l2.378-.892v-1.382a.5.5 0 0 1 1 0v1.729a.499.499 0 0 1-.324.468l-2.702 1.013a1.509 1.509 0 0 0-.974 1.405v5.114a.5.5 0 0 1-.5.5zM17.746 18.778a.504.504 0 0 1-.354-.146l-1.741-1.742a.5.5 0 0 1 0-.707l1.514-1.514a.5.5 0 0 1 .707 0l1.035 1.034c.283.283.439.661.439 1.062s-.156.777-.439 1.06l-.807.807a.5.5 0 0 1-.354.146zm-1.034-2.242l1.034 1.035.454-.454a.498.498 0 0 0 0-.707l-.682-.681-.806.807z"/><path fill="#4f5266" d="M17.005 16.036a.5.5 0 0 1-.354-.853l1.514-1.514a.5.5 0 0 1 .707.707l-1.514 1.514a.498.498 0 0 1-.353.146zM10.507 29.002a.5.5 0 0 1-.5-.498l-.008-2.559a1.513 1.513 0 0 1 .439-1.066l6.601-6.601-1.061-1.062-4.251 3.641a2.493 2.493 0 0 1-2.504.441l-.879-.33a.5.5 0 0 1-.324-.468v-1.72a.5.5 0 0 1 1 0v1.374l.555.209a1.508 1.508 0 0 0 1.502-.266l4.603-3.941a.502.502 0 0 1 .679.026l1.741 1.742a.5.5 0 0 1 0 .707l-6.954 6.954a.5.5 0 0 0-.146.355l.008 2.559a.5.5 0 0 1-.498.502l-.003.001zM5.521 19.291c-.276 0-.5-.224-.5-.5s.224-.51.5-.51.5.214.5.49v.02a.5.5 0 0 1-.5.5z"/><path fill="#4f5266" d="M7.007 22.453a2.016 2.016 0 0 1-2.014-2.014V19a.5.5 0 0 1 1 0v1.439c0 .559.455 1.014 1.014 1.014s1.014-.455 1.014-1.014V19a.5.5 0 0 1 1 0v1.439a2.016 2.016 0 0 1-2.014 2.014z"/></svg>